Coordinates
version=1
nRows=8
nColumns=42
inDegrees=yes

Units are S.I. units (second, meters, Newtons, ...)
If the header above contains a line with 'inDegrees', this indicates whether rotational values are in degrees (yes) or radians (no).

endheader
time	pelvis_tilt	pelvis_list	pelvis_rotation	pelvis_tx	pelvis_ty	pelvis_tz	hip_flexion_r	hip_adduction_r	hip_rotation_r	knee_angle_r	knee_adduction_r	knee_angle_r_beta	ankle_angle_r	subtalar_angle_r	mtp_angle_r	hip_flexion_l	hip_adduction_l	hip_rotation_l	knee_angle_l	knee_adduction_l	knee_angle_l_beta	ankle_angle_l	subtalar_angle_l	mtp_angle_l	lumbar_extension	lumbar_bending	lumbar_rotation	arm_flex_r	arm_add_r	arm_rot_r	elbow_flex_r	pro_sup_r	wrist_flex_r	wrist_dev_r	arm_flex_l	arm_add_l	arm_rot_l	elbow_flex_l	pro_sup_l	wrist_flex_l	wrist_dev_l
      0.00000000	     -4.02648157	     -3.23958849	      0.62900723	     -1.38518480	      0.86611283	     -0.37940026	      1.19231241	      3.75272049	      0.65043380	      3.53608537	      8.25392120	      0.06171633	      7.24145302	      0.04339318	     -9.30390653	     24.52540666	     -6.95306659	      4.61113486	     61.97225074	      9.15140816	      1.08161982	      6.78176521	    -15.09362938	     -9.30390653	     -5.39109058	      0.11361946	      5.60034077	     -3.50061932	    -17.83330631	      5.92520295	     37.91012409	     90.00000001	      0.00000000	      0.00000000	      1.25172055	    -11.21936332	     -7.45680682	     40.11903882	     90.00000001	      0.00000000	      0.00000000
      0.01000000	     -4.02749657	     -3.14652544	      0.73610716	     -1.37502861	      0.86536139	     -0.37874249	      0.37026016	      3.78189587	      0.61320981	      3.41256104	      8.17271693	      0.05956043	      7.95726368	      0.28786774	     -9.25519567	     25.95267328	     -6.77076505	      4.71214680	     60.08402410	      9.35511469	      1.04866405	      7.39719065	    -15.15455297	     -9.25519567	     -5.45253606	     -0.10093478	      5.64547788	     -2.62714596	    -17.74969080	      5.84919734	     38.51541831	     90.00000001	      0.00000000	      0.00000000	      0.94079543	    -11.33836521	     -7.72762745	     39.75413632	     90.00000001	      0.00000000	      0.00000000
      0.02000000	     -4.09554201	     -3.22227589	      0.77660038	     -1.36486107	      0.86441073	     -0.37793986	     -0.27049814	      4.06608797	      0.41831187	      3.52151278	      7.96770073	      0.06146199	      8.42174661	      0.39038071	     -9.23004678	     27.37934728	     -6.87161943	      4.36185748	     58.09383392	      9.26610362	      1.01392868	      7.74540405	    -14.94590255	     -9.23004678	     -5.44080526	     -0.13710084	      5.75341158	     -1.80048192	    -17.70262761	      5.80796503	     39.13716584	     90.00000001	      0.00000000	      0.00000000	      0.56899553	    -11.45546019	     -7.83653675	     39.50739607	     90.00000001	      0.00000000	      0.00000000
      0.03000000	     -4.13838592	     -3.24950689	      0.78574304	     -1.35465631	      0.86343960	     -0.37722830	     -1.00198286	      4.25173620	      0.41224771	      3.49854609	      7.84567614	      0.06106115	      8.99577418	      0.54235080	     -9.20432254	     28.62307712	     -6.91961733	      3.98361467	     55.84867526	      9.21354912	      0.97474327	      8.21922194	    -14.84897782	     -9.20432254	     -5.46303571	     -0.21467309	      5.87289636	     -0.97677724	    -17.62880662	      5.78946310	     39.76070452	     90.00000001	      0.00000000	      0.00000000	      0.24987155	    -11.53565909	     -8.04231964	     39.17763643	     90.00000001	      0.00000000	      0.00000000
      0.04000000	     -3.55269306	     -2.69309998	      0.62859466	     -1.34394779	      0.86339404	     -0.37692336	     -2.65842267	      3.61426570	      1.00819660	      3.01894901	      8.01842228	      0.05269060	      9.53553295	      0.53377398	     -9.12535533	     28.65236452	     -6.40552073	      3.27527588	     52.83992929	      9.28291121	      0.92223074	      8.58933141	    -15.21645880	     -9.12535533	     -6.19966571	     -0.89778481	      6.09607133	     -0.03292427	    -17.56667391	      5.82181163	     40.32728880	     90.00000001	      0.00000000	      0.00000000	      0.15345186	    -11.55359955	     -8.71123569	     38.61957747	     90.00000001	      0.00000000	      0.00000000
      0.05000000	     -3.57846268	     -2.66432886	      0.48664418	     -1.33361234	      0.86234203	     -0.37628818	     -3.41974088	      3.67578008	      1.24176501	      2.97666354	      7.97683222	      0.05195258	     10.09057822	      0.60575023	     -9.07918111	     29.51547175	     -6.52235985	      2.46389261	     50.05465699	      9.15237920	      0.87361857	      9.08723100	    -14.82961428	     -9.07918111	     -6.23928112	     -1.01037035	      6.32976509	      0.76223467	    -17.55343740	      5.87706424	     40.93786029	     90.00000001	      0.00000000	      0.00000000	     -0.11967563	    -11.61272989	     -8.96174259	     38.20914738	     90.00000001	      0.00000000	      0.00000000
      0.06000000	     -3.39556751	     -2.53789741	      0.29523706	     -1.32308041	      0.86155704	     -0.37573643	     -4.43004857	      3.58646006	      1.47247640	      2.91311696	      7.99650500	      0.05084348	     10.51325247	      0.61539204	     -9.02646151	     29.89411864	     -6.56847113	      1.40645754	     46.90057567	      8.96082156	      0.81856947	      9.41617647	    -14.24405567	     -9.02646151	     -6.50963115	     -1.22877703	      6.60663008	      1.56511641	    -17.52790381	      5.97046356	     41.52501572	     90.00000001	      0.00000000	      0.00000000	     -0.31370001	    -11.63018390	     -9.35889521	     37.76793751	     90.00000001	      0.00000000	      0.00000000
      0.07000000	     -3.61017373	     -2.95997112	      0.34068094	     -1.31270500	      0.85993217	     -0.37529062	     -4.88188804	      4.13558913	      1.09232374	      3.13242283	      7.98039086	      0.05467109	     10.81630089	      0.63630289	     -9.00665703	     30.97339113	     -7.11157289	      0.36179419	     44.16830089	      8.55674791	      0.77088228	      9.40454021	    -13.63583968	     -9.00665703	     -6.32637579	     -0.80087275	      6.59405987	      2.30518642	    -17.52220945	      5.95185273	     42.16160433	     90.00000001	      0.00000000	      0.00000000	     -0.78166188	    -11.69362278	     -9.41018618	     37.57458261	     90.00000001	      0.00000000	      0.00000000
